<svg width="240" height="62" viewBox="0 0 240 62" fill="none" xmlns="http://www.w3.org/2000/svg">
<title>litedrop</title>
<path d="M0 49.408V1.92H8V49.408H0Z" fill="#0061FE"/>
<path d="M15.94 49.408V15.232H23.94V49.408H15.94ZM19.972 9.6C18.4787 9.6 17.2413 9.13066 16.26 8.192C15.3213 7.25333 14.852 6.12267 14.852 4.8C14.852 3.43467 15.3213 2.304 16.26 1.408C17.2413 0.469332 18.4787 0 19.972 0C21.4653 0 22.6813 0.447999 23.62 1.344C24.6013 2.19733 25.092 3.28533 25.092 4.608C25.092 6.016 24.6227 7.21066 23.684 8.192C22.7453 9.13066 21.508 9.6 19.972 9.6Z" fill="#0061FE"/>
<path d="M44.744 49.856C40.9893 49.856 38.088 48.896 36.04 46.976C33.992 45.0133 32.968 42.1333 32.968 38.336V7.68H40.968V38.144C40.968 39.7653 41.3733 41.024 42.184 41.92C43.0373 42.816 44.2107 43.264 45.704 43.264C47.496 43.264 48.9893 42.7947 50.184 41.856L52.424 47.552C51.4853 48.32 50.3333 48.896 48.968 49.28C47.6027 49.664 46.1947 49.856 44.744 49.856ZM27.336 21.632V15.232H50.12V21.632H27.336Z" fill="#0061FE"/>
<path d="M71.384 49.856C67.5867 49.856 64.2587 49.1093 61.4 47.616C58.584 46.08 56.3867 43.9893 54.808 41.344C53.272 38.6987 52.504 35.6907 52.504 32.32C52.504 28.9067 53.2507 25.8987 54.744 23.296C56.28 20.6507 58.3707 18.5813 61.016 17.088C63.704 15.5947 66.7547 14.848 70.168 14.848C73.496 14.848 76.4613 15.5733 79.064 17.024C81.6667 18.4747 83.7147 20.5227 85.208 23.168C86.7013 25.8133 87.448 28.928 87.448 32.512C87.448 32.8533 87.4267 33.2373 87.384 33.664C87.384 34.0907 87.3627 34.496 87.32 34.88H58.84V29.568H83.096L79.96 31.232C80.0027 29.2693 79.5973 27.5413 78.744 26.048C77.8907 24.5547 76.7173 23.3813 75.224 22.528C73.7733 21.6747 72.088 21.248 70.168 21.248C68.2053 21.248 66.4773 21.6747 64.984 22.528C63.5333 23.3813 62.3813 24.576 61.528 26.112C60.7173 27.6053 60.312 29.376 60.312 31.424V32.704C60.312 34.752 60.7813 36.5653 61.72 38.144C62.6587 39.7227 63.9813 40.9387 65.688 41.792C67.3947 42.6453 69.3573 43.072 71.576 43.072C73.496 43.072 75.224 42.7733 76.76 42.176C78.296 41.5787 79.6613 40.64 80.856 39.36L85.144 44.288C83.608 46.08 81.6667 47.4667 79.32 48.448C77.016 49.3867 74.3707 49.856 71.384 49.856Z" fill="#0061FE"/>
<path d="M107.037 49.856C103.751 49.856 100.786 49.1307 98.1405 47.68C95.5378 46.1867 93.4898 44.1387 91.9965 41.536C90.5032 38.9333 89.7565 35.8613 89.7565 32.32C89.7565 28.7787 90.5032 25.7067 91.9965 23.104C93.4898 20.5013 95.5378 18.4747 98.1405 17.024C100.786 15.5733 103.751 14.848 107.037 14.848C109.895 14.848 112.455 15.488 114.717 16.768C116.978 18.0053 118.77 19.904 120.093 22.464C121.415 25.024 122.077 28.3093 122.077 32.32C122.077 36.288 121.437 39.5733 120.157 42.176C118.877 44.736 117.106 46.656 114.845 47.936C112.583 49.216 109.981 49.856 107.037 49.856ZM107.997 43.008C109.917 43.008 111.623 42.5813 113.117 41.728C114.653 40.8747 115.869 39.6373 116.765 38.016C117.703 36.3947 118.173 34.496 118.173 32.32C118.173 30.1013 117.703 28.2027 116.765 26.624C115.869 25.0027 114.653 23.7653 113.117 22.912C111.623 22.0587 109.917 21.632 107.997 21.632C106.077 21.632 104.349 22.0587 102.812 22.912C101.319 23.7653 100.103 25.0027 99.1645 26.624C98.2685 28.2027 97.8205 30.1013 97.8205 32.32C97.8205 34.496 98.2685 36.3947 99.1645 38.016C100.103 39.6373 101.319 40.8747 102.812 41.728C104.349 42.5813 106.077 43.008 107.997 43.008ZM118.365 49.408V41.344L118.685 32.256L118.045 23.168V1.92H125.981V49.408H118.365Z" fill="#0061FE"/>
<path d="M132.67 49.408V15.232H140.286V24.64L139.39 21.888C140.414 19.584 142.014 17.8347 144.19 16.64C146.409 15.4453 149.161 14.848 152.446 14.848V22.464C152.105 22.3787 151.785 22.336 151.486 22.336C151.187 22.2933 150.889 22.272 150.59 22.272C147.561 22.272 145.15 23.168 143.358 24.96C141.566 26.7093 140.67 29.3333 140.67 32.832V49.408H132.67Z" fill="#0061FE"/>
<path d="M170.44 49.856C166.941 49.856 163.827 49.1093 161.096 47.616C158.365 46.08 156.211 43.9893 154.632 41.344C153.053 38.6987 152.264 35.6907 152.264 32.32C152.264 28.9067 153.053 25.8987 154.632 23.296C156.211 20.6507 158.365 18.5813 161.096 17.088C163.827 15.5947 166.941 14.848 170.44 14.848C173.981 14.848 177.117 15.5947 179.848 17.088C182.621 18.5813 184.776 20.6293 186.312 23.232C187.891 25.8347 188.68 28.864 188.68 32.32C188.68 35.6907 187.891 38.6987 186.312 41.344C184.776 43.9893 182.621 46.08 179.848 47.616C177.117 49.1093 173.981 49.856 170.44 49.856ZM170.44 43.008C172.403 43.008 174.152 42.5813 175.688 41.728C177.224 40.8747 178.419 39.6373 179.272 38.016C180.168 36.3947 180.616 34.496 180.616 32.32C180.616 30.1013 180.168 28.2027 179.272 26.624C178.419 25.0027 177.224 23.7653 175.688 22.912C174.152 22.0587 172.424 21.632 170.504 21.632C168.541 21.632 166.792 22.0587 165.256 22.912C163.763 23.7653 162.568 25.0027 161.672 26.624C160.776 28.2027 160.328 30.1013 160.328 32.32C160.328 34.496 160.776 36.3947 161.672 38.016C162.568 39.6373 163.763 40.8747 165.256 41.728C166.792 42.5813 168.52 43.008 170.44 43.008Z" fill="#0061FE"/>
<path d="M211.434 49.856C208.661 49.856 206.122 49.216 203.818 47.936C201.557 46.656 199.743 44.736 198.378 42.176C197.055 39.5733 196.394 36.288 196.394 32.32C196.394 28.3093 197.034 25.024 198.314 22.464C199.637 19.904 201.429 18.0053 203.69 16.768C205.951 15.488 208.533 14.848 211.434 14.848C214.805 14.848 217.77 15.5733 220.33 17.024C222.933 18.4747 224.981 20.5013 226.474 23.104C228.01 25.7067 228.778 28.7787 228.778 32.32C228.778 35.8613 228.01 38.9547 226.474 41.6C224.981 44.2027 222.933 46.2293 220.33 47.68C217.77 49.1307 214.805 49.856 211.434 49.856ZM192.49 61.824V15.232H200.106V23.296L199.85 32.384L200.49 41.472V61.824H192.49ZM210.538 43.008C212.458 43.008 214.165 42.5813 215.658 41.728C217.194 40.8747 218.41 39.6373 219.306 38.016C220.202 36.3947 220.65 34.496 220.65 32.32C220.65 30.1013 220.202 28.2027 219.306 26.624C218.41 25.0027 217.194 23.7653 215.658 22.912C214.165 22.0587 212.458 21.632 210.538 21.632C208.618 21.632 206.89 22.0587 205.354 22.912C203.818 23.7653 202.602 25.0027 201.706 26.624C200.81 28.2027 200.362 30.1013 200.362 32.32C200.362 34.496 200.81 36.3947 201.706 38.016C202.602 39.6373 203.818 40.8747 205.354 41.728C206.89 42.5813 208.618 43.008 210.538 43.008Z" fill="#0061FE"/>
<path d="M234.522 49.856C233.072 49.856 231.835 49.3653 230.811 48.384C229.787 47.36 229.274 46.08 229.274 44.544C229.274 42.9227 229.787 41.6427 230.811 40.704C231.835 39.7227 233.072 39.232 234.522 39.232C235.973 39.232 237.21 39.7227 238.234 40.704C239.258 41.6427 239.77 42.9227 239.77 44.544C239.77 46.08 239.258 47.36 238.234 48.384C237.21 49.3653 235.973 49.856 234.522 49.856Z" fill="#0061FE"/>
</svg>
